<mxfile host="app.diagrams.net" agent="Mozilla/5.0 (Windows NT 10.0; Win64; x64) AppleWebKit/537.36 (KHTML, like Gecko) Chrome/129.0.0.0 Safari/537.36 Edg/129.0.0.0" version="24.7.17">
  <diagram name="Page-1" id="tu1plDjy8Q11aR2iwnSd">
    <mxGraphModel dx="2946" dy="1149" grid="1" gridSize="10" guides="1" tooltips="1" connect="1" arrows="1" fold="1" page="1" pageScale="1" pageWidth="850" pageHeight="1100" math="0" shadow="0">
      <root>
        <mxCell id="0" />
        <mxCell id="1" parent="0" />
        <mxCell id="S3XDm7CpPKI-B6z1fimQ-2" value="Member" style="swimlane;fontStyle=0;childLayout=stackLayout;horizontal=1;startSize=30;horizontalStack=0;resizeParent=1;resizeParentMax=0;resizeLast=0;collapsible=1;marginBottom=0;whiteSpace=wrap;html=1;" parent="1" vertex="1">
          <mxGeometry x="50" y="60" width="200" height="150" as="geometry" />
        </mxCell>
        <mxCell id="S3XDm7CpPKI-B6z1fimQ-3" value="+publicName:String" style="text;strokeColor=none;fillColor=none;align=left;verticalAlign=middle;spacingLeft=4;spacingRight=4;overflow=hidden;points=[[0,0.5],[1,0.5]];portConstraint=eastwest;rotatable=0;whiteSpace=wrap;html=1;" parent="S3XDm7CpPKI-B6z1fimQ-2" vertex="1">
          <mxGeometry y="30" width="200" height="30" as="geometry" />
        </mxCell>
        <mxCell id="S3XDm7CpPKI-B6z1fimQ-4" value="-privateID:Integer" style="text;strokeColor=none;fillColor=none;align=left;verticalAlign=middle;spacingLeft=4;spacingRight=4;overflow=hidden;points=[[0,0.5],[1,0.5]];portConstraint=eastwest;rotatable=0;whiteSpace=wrap;html=1;" parent="S3XDm7CpPKI-B6z1fimQ-2" vertex="1">
          <mxGeometry y="60" width="200" height="30" as="geometry" />
        </mxCell>
        <mxCell id="S3XDm7CpPKI-B6z1fimQ-5" value="+staticUserRole" style="text;strokeColor=none;fillColor=none;align=left;verticalAlign=middle;spacingLeft=4;spacingRight=4;overflow=hidden;points=[[0,0.5],[1,0.5]];portConstraint=eastwest;rotatable=0;whiteSpace=wrap;html=1;" parent="S3XDm7CpPKI-B6z1fimQ-2" vertex="1">
          <mxGeometry y="90" width="200" height="30" as="geometry" />
        </mxCell>
        <mxCell id="DC1bKPCYqgGZBgdKJd4Y-17" value="#memberships:ArrayList&amp;lt;Integer&amp;gt;" style="text;strokeColor=none;fillColor=none;align=left;verticalAlign=middle;spacingLeft=4;spacingRight=4;overflow=hidden;points=[[0,0.5],[1,0.5]];portConstraint=eastwest;rotatable=0;whiteSpace=wrap;html=1;" parent="S3XDm7CpPKI-B6z1fimQ-2" vertex="1">
          <mxGeometry y="120" width="200" height="30" as="geometry" />
        </mxCell>
        <mxCell id="DC1bKPCYqgGZBgdKJd4Y-2" value="&amp;lt;&amp;lt;constructor&amp;gt;&amp;gt;Member(String)&lt;div&gt;+getID:String&lt;/div&gt;&lt;div&gt;+getName:String&lt;/div&gt;&lt;div&gt;-getPaymentInfo:String&lt;/div&gt;&lt;div&gt;+getMemberships:ArrayList&amp;lt;Integer&amp;gt;&lt;/div&gt;&lt;div&gt;+isReserved:Boolean&lt;/div&gt;&lt;div&gt;+getCancelReserved:Boolean&lt;/div&gt;" style="whiteSpace=wrap;html=1;align=left;verticalAlign=top;" parent="1" vertex="1">
          <mxGeometry x="50" y="210" width="200" height="120" as="geometry" />
        </mxCell>
        <mxCell id="DC1bKPCYqgGZBgdKJd4Y-5" value="Manager" style="swimlane;fontStyle=0;childLayout=stackLayout;horizontal=1;startSize=30;horizontalStack=0;resizeParent=1;resizeParentMax=0;resizeLast=0;collapsible=1;marginBottom=0;whiteSpace=wrap;html=1;" parent="1" vertex="1">
          <mxGeometry x="50" y="340" width="180" height="150" as="geometry" />
        </mxCell>
        <mxCell id="DC1bKPCYqgGZBgdKJd4Y-6" value="+publicName:String" style="text;strokeColor=none;fillColor=none;align=left;verticalAlign=middle;spacingLeft=4;spacingRight=4;overflow=hidden;points=[[0,0.5],[1,0.5]];portConstraint=eastwest;rotatable=0;whiteSpace=wrap;html=1;" parent="DC1bKPCYqgGZBgdKJd4Y-5" vertex="1">
          <mxGeometry y="30" width="180" height="30" as="geometry" />
        </mxCell>
        <mxCell id="DC1bKPCYqgGZBgdKJd4Y-7" value="-privateID:Integer" style="text;strokeColor=none;fillColor=none;align=left;verticalAlign=middle;spacingLeft=4;spacingRight=4;overflow=hidden;points=[[0,0.5],[1,0.5]];portConstraint=eastwest;rotatable=0;whiteSpace=wrap;html=1;" parent="DC1bKPCYqgGZBgdKJd4Y-5" vertex="1">
          <mxGeometry y="60" width="180" height="30" as="geometry" />
        </mxCell>
        <mxCell id="DC1bKPCYqgGZBgdKJd4Y-16" value="-CourseID:Integer" style="text;strokeColor=none;fillColor=none;align=left;verticalAlign=middle;spacingLeft=4;spacingRight=4;overflow=hidden;points=[[0,0.5],[1,0.5]];portConstraint=eastwest;rotatable=0;whiteSpace=wrap;html=1;" parent="DC1bKPCYqgGZBgdKJd4Y-5" vertex="1">
          <mxGeometry y="90" width="180" height="30" as="geometry" />
        </mxCell>
        <mxCell id="DC1bKPCYqgGZBgdKJd4Y-8" value="+staticUserRole" style="text;strokeColor=none;fillColor=none;align=left;verticalAlign=middle;spacingLeft=4;spacingRight=4;overflow=hidden;points=[[0,0.5],[1,0.5]];portConstraint=eastwest;rotatable=0;whiteSpace=wrap;html=1;" parent="DC1bKPCYqgGZBgdKJd4Y-5" vertex="1">
          <mxGeometry y="120" width="180" height="30" as="geometry" />
        </mxCell>
        <mxCell id="DC1bKPCYqgGZBgdKJd4Y-9" value="&amp;lt;&amp;lt;constructor&amp;gt;&amp;gt;Manager(String)&lt;div&gt;+getID:Integer&lt;/div&gt;&lt;div&gt;+getCourseID:Intger&lt;/div&gt;&lt;div&gt;+getName:String&lt;/div&gt;&lt;div&gt;+getCourseiD:Integer&lt;/div&gt;&lt;div&gt;&lt;br&gt;&lt;/div&gt;" style="whiteSpace=wrap;html=1;align=left;verticalAlign=top;" parent="1" vertex="1">
          <mxGeometry x="50" y="490" width="180" height="80" as="geometry" />
        </mxCell>
        <mxCell id="DC1bKPCYqgGZBgdKJd4Y-10" value="GolfCourse" style="swimlane;fontStyle=0;childLayout=stackLayout;horizontal=1;startSize=30;horizontalStack=0;resizeParent=1;resizeParentMax=0;resizeLast=0;collapsible=1;marginBottom=0;whiteSpace=wrap;html=1;" parent="1" vertex="1">
          <mxGeometry x="265" y="60" width="320" height="150" as="geometry" />
        </mxCell>
        <mxCell id="DC1bKPCYqgGZBgdKJd4Y-11" value="+publicName:String" style="text;strokeColor=none;fillColor=none;align=left;verticalAlign=middle;spacingLeft=4;spacingRight=4;overflow=hidden;points=[[0,0.5],[1,0.5]];portConstraint=eastwest;rotatable=0;whiteSpace=wrap;html=1;" parent="DC1bKPCYqgGZBgdKJd4Y-10" vertex="1">
          <mxGeometry y="30" width="320" height="30" as="geometry" />
        </mxCell>
        <mxCell id="DC1bKPCYqgGZBgdKJd4Y-12" value="+CourseID:Integer" style="text;strokeColor=none;fillColor=none;align=left;verticalAlign=middle;spacingLeft=4;spacingRight=4;overflow=hidden;points=[[0,0.5],[1,0.5]];portConstraint=eastwest;rotatable=0;whiteSpace=wrap;html=1;" parent="DC1bKPCYqgGZBgdKJd4Y-10" vertex="1">
          <mxGeometry y="60" width="320" height="30" as="geometry" />
        </mxCell>
        <mxCell id="DC1bKPCYqgGZBgdKJd4Y-13" value="+Location:String" style="text;strokeColor=none;fillColor=none;align=left;verticalAlign=middle;spacingLeft=4;spacingRight=4;overflow=hidden;points=[[0,0.5],[1,0.5]];portConstraint=eastwest;rotatable=0;whiteSpace=wrap;html=1;" parent="DC1bKPCYqgGZBgdKJd4Y-10" vertex="1">
          <mxGeometry y="90" width="320" height="30" as="geometry" />
        </mxCell>
        <mxCell id="DC1bKPCYqgGZBgdKJd4Y-23" value="+TeeTimes:ArrayList&amp;lt;TeeTime&amp;gt;" style="text;strokeColor=none;fillColor=none;align=left;verticalAlign=middle;spacingLeft=4;spacingRight=4;overflow=hidden;points=[[0,0.5],[1,0.5]];portConstraint=eastwest;rotatable=0;whiteSpace=wrap;html=1;" parent="DC1bKPCYqgGZBgdKJd4Y-10" vertex="1">
          <mxGeometry y="120" width="320" height="30" as="geometry" />
        </mxCell>
        <mxCell id="DC1bKPCYqgGZBgdKJd4Y-14" value="&amp;lt;&amp;lt;constructor&amp;gt;&amp;gt;GolfCourse(String,Integer,String,ArrayList)&lt;div&gt;+getCourseID:Integer&lt;/div&gt;&lt;div&gt;+getName:String&lt;/div&gt;&lt;div&gt;-getPaymentInfo:String&lt;br&gt;+getTeeTimes:ArrayList&amp;lt;TeeTime&amp;gt;&lt;/div&gt;&lt;div&gt;&lt;br&gt;&lt;/div&gt;" style="whiteSpace=wrap;html=1;align=left;verticalAlign=top;" parent="1" vertex="1">
          <mxGeometry x="265" y="210" width="320" height="80" as="geometry" />
        </mxCell>
        <mxCell id="DC1bKPCYqgGZBgdKJd4Y-18" value="TeeTime" style="swimlane;fontStyle=0;childLayout=stackLayout;horizontal=1;startSize=30;horizontalStack=0;resizeParent=1;resizeParentMax=0;resizeLast=0;collapsible=1;marginBottom=0;whiteSpace=wrap;html=1;" parent="1" vertex="1">
          <mxGeometry x="600" y="60" width="280" height="120" as="geometry" />
        </mxCell>
        <mxCell id="DC1bKPCYqgGZBgdKJd4Y-19" value="+publicTime:Integer" style="text;strokeColor=none;fillColor=none;align=left;verticalAlign=middle;spacingLeft=4;spacingRight=4;overflow=hidden;points=[[0,0.5],[1,0.5]];portConstraint=eastwest;rotatable=0;whiteSpace=wrap;html=1;" parent="DC1bKPCYqgGZBgdKJd4Y-18" vertex="1">
          <mxGeometry y="30" width="280" height="30" as="geometry" />
        </mxCell>
        <mxCell id="DC1bKPCYqgGZBgdKJd4Y-20" value="+CourseID:Integer" style="text;strokeColor=none;fillColor=none;align=left;verticalAlign=middle;spacingLeft=4;spacingRight=4;overflow=hidden;points=[[0,0.5],[1,0.5]];portConstraint=eastwest;rotatable=0;whiteSpace=wrap;html=1;" parent="DC1bKPCYqgGZBgdKJd4Y-18" vertex="1">
          <mxGeometry y="60" width="280" height="30" as="geometry" />
        </mxCell>
        <mxCell id="DC1bKPCYqgGZBgdKJd4Y-24" value="+Players:ArrayList&amp;lt;member&amp;gt;" style="text;strokeColor=none;fillColor=none;align=left;verticalAlign=middle;spacingLeft=4;spacingRight=4;overflow=hidden;points=[[0,0.5],[1,0.5]];portConstraint=eastwest;rotatable=0;whiteSpace=wrap;html=1;" parent="DC1bKPCYqgGZBgdKJd4Y-18" vertex="1">
          <mxGeometry y="90" width="280" height="30" as="geometry" />
        </mxCell>
        <mxCell id="DC1bKPCYqgGZBgdKJd4Y-22" value="&amp;lt;&amp;lt;constructor&amp;gt;&amp;gt;TeeTime(Integer,Integer,ArrayList)&lt;div&gt;+getID:integer&lt;/div&gt;&lt;div&gt;+getTime:Integer&lt;/div&gt;&lt;div&gt;+getIsReserved:Boolean&lt;/div&gt;&lt;div&gt;+getCancelReserved:Boolean&lt;br&gt;&lt;/div&gt;&lt;div&gt;-&lt;span style=&quot;background-color: initial;&quot;&gt;+getPlayers:ArrayList&amp;lt;Member&amp;gt;&lt;/span&gt;&lt;/div&gt;&lt;div&gt;&lt;br&gt;&lt;/div&gt;" style="whiteSpace=wrap;html=1;align=left;verticalAlign=top;" parent="1" vertex="1">
          <mxGeometry x="600" y="180" width="280" height="100" as="geometry" />
        </mxCell>
        <mxCell id="DC1bKPCYqgGZBgdKJd4Y-25" value="ClubSet" style="swimlane;fontStyle=0;childLayout=stackLayout;horizontal=1;startSize=30;horizontalStack=0;resizeParent=1;resizeParentMax=0;resizeLast=0;collapsible=1;marginBottom=0;whiteSpace=wrap;html=1;" parent="1" vertex="1">
          <mxGeometry x="260" y="340" width="310" height="150" as="geometry" />
        </mxCell>
        <mxCell id="DC1bKPCYqgGZBgdKJd4Y-26" value="+publicClubs:Integer" style="text;strokeColor=none;fillColor=none;align=left;verticalAlign=middle;spacingLeft=4;spacingRight=4;overflow=hidden;points=[[0,0.5],[1,0.5]];portConstraint=eastwest;rotatable=0;whiteSpace=wrap;html=1;" parent="DC1bKPCYqgGZBgdKJd4Y-25" vertex="1">
          <mxGeometry y="30" width="310" height="30" as="geometry" />
        </mxCell>
        <mxCell id="DC1bKPCYqgGZBgdKJd4Y-27" value="+CourseID:Integer" style="text;strokeColor=none;fillColor=none;align=left;verticalAlign=middle;spacingLeft=4;spacingRight=4;overflow=hidden;points=[[0,0.5],[1,0.5]];portConstraint=eastwest;rotatable=0;whiteSpace=wrap;html=1;" parent="DC1bKPCYqgGZBgdKJd4Y-25" vertex="1">
          <mxGeometry y="60" width="310" height="30" as="geometry" />
        </mxCell>
        <mxCell id="DC1bKPCYqgGZBgdKJd4Y-28" value="+IsReserved:Boolean" style="text;strokeColor=none;fillColor=none;align=left;verticalAlign=middle;spacingLeft=4;spacingRight=4;overflow=hidden;points=[[0,0.5],[1,0.5]];portConstraint=eastwest;rotatable=0;whiteSpace=wrap;html=1;" parent="DC1bKPCYqgGZBgdKJd4Y-25" vertex="1">
          <mxGeometry y="90" width="310" height="30" as="geometry" />
        </mxCell>
        <mxCell id="DC1bKPCYqgGZBgdKJd4Y-30" value="+publicRentedTime:Integer" style="text;strokeColor=none;fillColor=none;align=left;verticalAlign=middle;spacingLeft=4;spacingRight=4;overflow=hidden;points=[[0,0.5],[1,0.5]];portConstraint=eastwest;rotatable=0;whiteSpace=wrap;html=1;" parent="DC1bKPCYqgGZBgdKJd4Y-25" vertex="1">
          <mxGeometry y="120" width="310" height="30" as="geometry" />
        </mxCell>
        <mxCell id="DC1bKPCYqgGZBgdKJd4Y-29" value="&amp;lt;&amp;lt;constructor&amp;gt;&amp;gt;ClubSet(Integer,Integer,Boolean,Integer)&lt;div&gt;+getRentedTime:Integer&lt;/div&gt;&lt;div&gt;+getCourseID:Integer&lt;/div&gt;&lt;div&gt;+getIsReserved:Boolean&lt;/div&gt;&lt;div&gt;+getCancelReserved:Boolean&lt;br&gt;&lt;/div&gt;" style="whiteSpace=wrap;html=1;align=left;verticalAlign=top;" parent="1" vertex="1">
          <mxGeometry x="260" y="490" width="310" height="90" as="geometry" />
        </mxCell>
        <mxCell id="DC1bKPCYqgGZBgdKJd4Y-31" value="Tournament" style="swimlane;fontStyle=0;childLayout=stackLayout;horizontal=1;startSize=30;horizontalStack=0;resizeParent=1;resizeParentMax=0;resizeLast=0;collapsible=1;marginBottom=0;whiteSpace=wrap;html=1;" parent="1" vertex="1">
          <mxGeometry x="600" y="300" width="340" height="150" as="geometry" />
        </mxCell>
        <mxCell id="DC1bKPCYqgGZBgdKJd4Y-33" value="+CourseID:Integer" style="text;strokeColor=none;fillColor=none;align=left;verticalAlign=middle;spacingLeft=4;spacingRight=4;overflow=hidden;points=[[0,0.5],[1,0.5]];portConstraint=eastwest;rotatable=0;whiteSpace=wrap;html=1;" parent="DC1bKPCYqgGZBgdKJd4Y-31" vertex="1">
          <mxGeometry y="30" width="340" height="30" as="geometry" />
        </mxCell>
        <mxCell id="DC1bKPCYqgGZBgdKJd4Y-35" value="+Date:String" style="text;strokeColor=none;fillColor=none;align=left;verticalAlign=middle;spacingLeft=4;spacingRight=4;overflow=hidden;points=[[0,0.5],[1,0.5]];portConstraint=eastwest;rotatable=0;whiteSpace=wrap;html=1;" parent="DC1bKPCYqgGZBgdKJd4Y-31" vertex="1">
          <mxGeometry y="60" width="340" height="30" as="geometry" />
        </mxCell>
        <mxCell id="DC1bKPCYqgGZBgdKJd4Y-37" value="+TeeTimes:ArrayList&amp;lt;TeeTime&amp;gt;" style="text;strokeColor=none;fillColor=none;align=left;verticalAlign=middle;spacingLeft=4;spacingRight=4;overflow=hidden;points=[[0,0.5],[1,0.5]];portConstraint=eastwest;rotatable=0;whiteSpace=wrap;html=1;" parent="DC1bKPCYqgGZBgdKJd4Y-31" vertex="1">
          <mxGeometry y="90" width="340" height="30" as="geometry" />
        </mxCell>
        <mxCell id="DC1bKPCYqgGZBgdKJd4Y-38" value="+Manager:Manager" style="text;strokeColor=none;fillColor=none;align=left;verticalAlign=middle;spacingLeft=4;spacingRight=4;overflow=hidden;points=[[0,0.5],[1,0.5]];portConstraint=eastwest;rotatable=0;whiteSpace=wrap;html=1;" parent="DC1bKPCYqgGZBgdKJd4Y-31" vertex="1">
          <mxGeometry y="120" width="340" height="30" as="geometry" />
        </mxCell>
        <mxCell id="DC1bKPCYqgGZBgdKJd4Y-36" value="&amp;lt;&amp;lt;constructor&amp;gt;&amp;gt;Tournament(Integer,String,TeeTime,Manager)&lt;div&gt;+getDate:String&lt;/div&gt;&lt;div&gt;+getCourseID:Integer&lt;/div&gt;&lt;div&gt;+getTeeTimes:ArrayList&amp;lt;TeeTime&amp;gt;&lt;/div&gt;&lt;div&gt;+getManager:Manager&lt;/div&gt;&lt;div&gt;&lt;br&gt;&lt;/div&gt;" style="whiteSpace=wrap;html=1;align=left;verticalAlign=top;" parent="1" vertex="1">
          <mxGeometry x="600" y="450" width="340" height="90" as="geometry" />
        </mxCell>
        <mxCell id="DC1bKPCYqgGZBgdKJd4Y-39" value="PaymentInfo" style="swimlane;fontStyle=0;childLayout=stackLayout;horizontal=1;startSize=30;horizontalStack=0;resizeParent=1;resizeParentMax=0;resizeLast=0;collapsible=1;marginBottom=0;whiteSpace=wrap;html=1;" parent="1" vertex="1">
          <mxGeometry x="50" y="600" width="320" height="150" as="geometry" />
        </mxCell>
        <mxCell id="DC1bKPCYqgGZBgdKJd4Y-40" value="#CardHolder:String" style="text;strokeColor=none;fillColor=none;align=left;verticalAlign=middle;spacingLeft=4;spacingRight=4;overflow=hidden;points=[[0,0.5],[1,0.5]];portConstraint=eastwest;rotatable=0;whiteSpace=wrap;html=1;" parent="DC1bKPCYqgGZBgdKJd4Y-39" vertex="1">
          <mxGeometry y="30" width="320" height="30" as="geometry" />
        </mxCell>
        <mxCell id="DC1bKPCYqgGZBgdKJd4Y-41" value="#CardNumber:Integer" style="text;strokeColor=none;fillColor=none;align=left;verticalAlign=middle;spacingLeft=4;spacingRight=4;overflow=hidden;points=[[0,0.5],[1,0.5]];portConstraint=eastwest;rotatable=0;whiteSpace=wrap;html=1;" parent="DC1bKPCYqgGZBgdKJd4Y-39" vertex="1">
          <mxGeometry y="60" width="320" height="30" as="geometry" />
        </mxCell>
        <mxCell id="DC1bKPCYqgGZBgdKJd4Y-42" value="#Expiration:Integer" style="text;strokeColor=none;fillColor=none;align=left;verticalAlign=middle;spacingLeft=4;spacingRight=4;overflow=hidden;points=[[0,0.5],[1,0.5]];portConstraint=eastwest;rotatable=0;whiteSpace=wrap;html=1;" parent="DC1bKPCYqgGZBgdKJd4Y-39" vertex="1">
          <mxGeometry y="90" width="320" height="30" as="geometry" />
        </mxCell>
        <mxCell id="DC1bKPCYqgGZBgdKJd4Y-43" value="#CVV:Integer" style="text;strokeColor=none;fillColor=none;align=left;verticalAlign=middle;spacingLeft=4;spacingRight=4;overflow=hidden;points=[[0,0.5],[1,0.5]];portConstraint=eastwest;rotatable=0;whiteSpace=wrap;html=1;" parent="DC1bKPCYqgGZBgdKJd4Y-39" vertex="1">
          <mxGeometry y="120" width="320" height="30" as="geometry" />
        </mxCell>
        <mxCell id="DC1bKPCYqgGZBgdKJd4Y-44" value="&amp;lt;&amp;lt;constructor&amp;gt;&amp;gt;PaymentInfo(String,Integer,Integer,Integer)&lt;div&gt;+getCarhHolder:String&lt;/div&gt;&lt;div&gt;+getCardNumber:Integer&lt;/div&gt;&lt;div&gt;+getExpiration:Integer&lt;/div&gt;&lt;div&gt;+getCVV:Integer&lt;/div&gt;&lt;div&gt;&lt;br&gt;&lt;/div&gt;" style="whiteSpace=wrap;html=1;align=left;verticalAlign=top;" parent="1" vertex="1">
          <mxGeometry x="50" y="750" width="320" height="90" as="geometry" />
        </mxCell>
      </root>
    </mxGraphModel>
  </diagram>
</mxfile>
